# xmcd
#
# Track frame offsets:
#	150
#	21152
#	50179
#	69463
#	103863
#	128811
#	161947
#	190638
#	220088
#
# Disc length: 3185 seconds
#
# Revision: 0
# Processed by: cddbd v1.5.2PL0 Copyright (c) Steve Scherf et al.
# Submitted via: EasyCDDAExtractor 12.0.7.1
#
DISCID=830c6f09
DTITLE=Larry Miller - On The Edge
DYEAR=2012
DGENRE=Blues Rock
TTITLE0=When Trouble Comes 
TTITLE1=The Girl That Got Away
TTITLE2=Road Runner
TTITLE3=The Wrong Name
TTITLE4=Reel Me In
TTITLE5=We Should Be One
TTITLE6=The Devil's In The Detail
TTITLE7=When The Bluesman Walked The Earth
TTITLE8=The Wrong Name Part Two
EXTD=
EXTT0=
EXTT1=
EXTT2=
EXTT3=
EXTT4=
EXTT5=
EXTT6=
EXTT7=
EXTT8=
PLAYORDER=
